<svg xmlns="http://www.w3.org/2000/svg" viewBox="0 0 410 404"><defs><linearGradient id="a" x1="5.72%" x2="50.32%" y1="3.86%" y2="50.52%"><stop stop-color="#41D1FF"/><stop offset="1" stop-color="#BD34FE"/></linearGradient><linearGradient id="b" x1="1.18%" x2="98.88%" y1="-7.05%" y2="110.88%"><stop stop-color="#FFEA83"/><stop offset=".08" stop-color="#FFDD35"/><stop offset="1" stop-color="#FFA800"/></linearGradient></defs><path fill="#fff" d="M399.641 59.525 215.779 388.936c-3.35 5.973-11.98 5.993-15.356.037L10.704 59.56c-3.546-6.149 1.371-13.717 8.334-12.59l184.29 30.008a8.75 8.75 0 0 0 2.84 0l184.146-29.99c6.949-1.13 11.874 6.4 8.34 12.55Z"/><path fill="url(#a)" d="m292.965 107.082-73.225 144.91c-2.969 5.873-11.543 5.953-14.616.142l-77.065-145c-3.324-6.254 2.275-13.51 9.145-12.263l71.966 12.922a7.5 7.5 0 0 0 2.684-.003l71.119-12.885c6.86-1.243 12.473 5.987 9.174 12.245Z"/><path fill="url(#b)" d="m207.508 50.034 7.842 95.702c.35 4.28-3.472 7.78-7.708 6.959l-26.64-5.07c-4.187-.797-7.118-4.707-6.335-8.902l18.023-95.7c.952-5.055 8.29-5.015 9.356.057Z"/></svg>
